<?xml version="1.0" encoding="UTF-8" standalone="no"?>
<!DOCTYPE svg PUBLIC "-//W3C//DTD SVG 1.1//EN"
 "http://www.w3.org/Graphics/SVG/1.1/DTD/svg11.dtd">
<!-- Generated by graphviz version 2.40.1 (20161225.0304)
 -->
<!-- Title: dependencies Pages: 1 -->
<svg width="2450pt" height="284pt"
 viewBox="0.00 0.00 2450.00 284.00" xmlns="http://www.w3.org/2000/svg" xmlns:xlink="http://www.w3.org/1999/xlink">
<g id="graph0" class="graph" transform="scale(1 1) rotate(0) translate(4 280)">
<title>dependencies</title>
<polygon fill="#ffffff" stroke="transparent" points="-4,4 -4,-280 2446,-280 2446,4 -4,4"/>
<text text-anchor="start" x="1200.0091" y="-42.4" font-family="sans-serif" font-weight="bold" font-size="14.00" fill="#000000">Legend</text>
<polygon fill="#ffffb3" stroke="transparent" points="987,-10 987,-30 1007,-30 1007,-10 987,-10"/>
<text text-anchor="start" x="1010.629" y="-15.4" font-family="sans-serif" font-size="14.00" fill="#000000"> &#160;Declarations</text>
<polygon fill="#8dd3c7" stroke="transparent" points="1100,-10 1100,-30 1120,-30 1120,-10 1100,-10"/>
<text text-anchor="start" x="1123.7251" y="-15.4" font-family="sans-serif" font-size="14.00" fill="#000000"> &#160;Module</text>
<polygon fill="#80b1d3" stroke="transparent" points="1186,-10 1186,-30 1206,-30 1206,-10 1186,-10"/>
<text text-anchor="start" x="1209.7812" y="-15.4" font-family="sans-serif" font-size="14.00" fill="#000000"> &#160;Bootstrap</text>
<polygon fill="#fdb462" stroke="transparent" points="1283,-10 1283,-30 1303,-30 1303,-10 1283,-10"/>
<text text-anchor="start" x="1306.6732" y="-15.4" font-family="sans-serif" font-size="14.00" fill="#000000"> &#160;Providers</text>
<polygon fill="#fb8072" stroke="transparent" points="1379,-10 1379,-30 1399,-30 1399,-10 1379,-10"/>
<text text-anchor="start" x="1402.7258" y="-15.4" font-family="sans-serif" font-size="14.00" fill="#000000"> &#160;Exports</text>
<g id="clust1" class="cluster">
<title>cluster_AppModule</title>
<polygon fill="none" stroke="#000000" stroke-dasharray="1,5" points="8,-70 8,-268 2434,-268 2434,-70 8,-70"/>
</g>
<g id="clust2" class="cluster">
<title>cluster_AppModule_declarations</title>
<polygon fill="none" stroke="#000000" points="1324,-78 1324,-130 2426,-130 2426,-78 1324,-78"/>
</g>
<g id="clust11" class="cluster">
<title>cluster_AppModule_imports</title>
<polygon fill="none" stroke="#000000" points="166,-78 166,-130 1316,-130 1316,-78 166,-78"/>
</g>
<g id="clust13" class="cluster">
<title>cluster_AppModule_bootstrap</title>
<polygon fill="none" stroke="#000000" points="1265,-208 1265,-260 1389,-260 1389,-208 1265,-208"/>
</g>
<g id="clust14" class="cluster">
<title>cluster_AppModule_providers</title>
<polygon fill="none" stroke="#000000" points="16,-78 16,-130 158,-130 158,-78 16,-78"/>
</g>
<!-- AppComponent -->
<g id="node1" class="node">
<title>AppComponent</title>
<polygon fill="#ffffb3" stroke="#000000" points="2417.9399,-122 2312.0601,-122 2312.0601,-86 2417.9399,-86 2417.9399,-122"/>
<text text-anchor="middle" x="2365" y="-99.8" font-family="Times,serif" font-size="14.00" fill="#000000">AppComponent</text>
</g>
<!-- AppModule -->
<g id="node9" class="node">
<title>AppModule</title>
<polygon fill="#8dd3c7" stroke="#000000" points="1368.6571,-187 1365.6571,-191 1344.6571,-191 1341.6571,-187 1285.3429,-187 1285.3429,-151 1368.6571,-151 1368.6571,-187"/>
<text text-anchor="middle" x="1327" y="-164.8" font-family="Times,serif" font-size="14.00" fill="#000000">AppModule</text>
</g>
<!-- AppComponent&#45;&gt;AppModule -->
<g id="edge1" class="edge">
<title>AppComponent&#45;&gt;AppModule</title>
<path fill="none" stroke="#000000" d="M2365,-122.3228C2365,-145.6602 2365,-183 2365,-183 2365,-183 1378.9764,-183 1378.9764,-183"/>
<polygon fill="#000000" stroke="#000000" points="1378.9765,-179.5001 1368.9764,-183 1378.9764,-186.5001 1378.9765,-179.5001"/>
</g>
<!-- ScoresComponent -->
<g id="node2" class="node">
<title>ScoresComponent</title>
<polygon fill="#ffffb3" stroke="#000000" points="2294.1499,-122 2175.8501,-122 2175.8501,-86 2294.1499,-86 2294.1499,-122"/>
<text text-anchor="middle" x="2235" y="-99.8" font-family="Times,serif" font-size="14.00" fill="#000000">ScoresComponent</text>
</g>
<!-- ScoresComponent&#45;&gt;AppModule -->
<g id="edge2" class="edge">
<title>ScoresComponent&#45;&gt;AppModule</title>
<path fill="none" stroke="#000000" d="M2235,-122.2921C2235,-144.2057 2235,-178 2235,-178 2235,-178 1378.6735,-178 1378.6735,-178"/>
<polygon fill="#000000" stroke="#000000" points="1378.6736,-174.5001 1368.6735,-178 1378.6735,-181.5001 1378.6736,-174.5001"/>
</g>
<!-- QuizUserComponent -->
<g id="node3" class="node">
<title>QuizUserComponent</title>
<polygon fill="#ffffb3" stroke="#000000" points="2157.4706,-122 2022.5294,-122 2022.5294,-86 2157.4706,-86 2157.4706,-122"/>
<text text-anchor="middle" x="2090" y="-99.8" font-family="Times,serif" font-size="14.00" fill="#000000">QuizUserComponent</text>
</g>
<!-- QuizUserComponent&#45;&gt;AppModule -->
<g id="edge3" class="edge">
<title>QuizUserComponent&#45;&gt;AppModule</title>
<path fill="none" stroke="#000000" d="M2090,-122.0267C2090,-142.7672 2090,-174 2090,-174 2090,-174 1378.8361,-174 1378.8361,-174"/>
<polygon fill="#000000" stroke="#000000" points="1378.8362,-170.5001 1368.8361,-174 1378.8361,-177.5001 1378.8362,-170.5001"/>
</g>
<!-- HomeComponent -->
<g id="node4" class="node">
<title>HomeComponent</title>
<polygon fill="#ffffb3" stroke="#000000" points="2004.5451,-122 1889.4549,-122 1889.4549,-86 2004.5451,-86 2004.5451,-122"/>
<text text-anchor="middle" x="1947" y="-99.8" font-family="Times,serif" font-size="14.00" fill="#000000">HomeComponent</text>
</g>
<!-- HomeComponent&#45;&gt;AppModule -->
<g id="edge4" class="edge">
<title>HomeComponent&#45;&gt;AppModule</title>
<path fill="none" stroke="#000000" d="M1947,-122.1061C1947,-141.3391 1947,-169 1947,-169 1947,-169 1379.1277,-169 1379.1277,-169"/>
<polygon fill="#000000" stroke="#000000" points="1379.1277,-165.5001 1369.1277,-169 1379.1276,-172.5001 1379.1277,-165.5001"/>
</g>
<!-- CardsComponent -->
<g id="node5" class="node">
<title>CardsComponent</title>
<polygon fill="#ffffb3" stroke="#000000" points="1870.9888,-122 1757.0112,-122 1757.0112,-86 1870.9888,-86 1870.9888,-122"/>
<text text-anchor="middle" x="1814" y="-99.8" font-family="Times,serif" font-size="14.00" fill="#000000">CardsComponent</text>
</g>
<!-- CardsComponent&#45;&gt;AppModule -->
<g id="edge5" class="edge">
<title>CardsComponent&#45;&gt;AppModule</title>
<path fill="none" stroke="#000000" d="M1814,-122.302C1814,-140.2699 1814,-165 1814,-165 1814,-165 1378.9428,-165 1378.9428,-165"/>
<polygon fill="#000000" stroke="#000000" points="1378.9429,-161.5001 1368.9428,-165 1378.9428,-168.5001 1378.9429,-161.5001"/>
</g>
<!-- CardComponent -->
<g id="node6" class="node">
<title>CardComponent</title>
<polygon fill="#ffffb3" stroke="#000000" points="1739.0452,-122 1630.9548,-122 1630.9548,-86 1739.0452,-86 1739.0452,-122"/>
<text text-anchor="middle" x="1685" y="-99.8" font-family="Times,serif" font-size="14.00" fill="#000000">CardComponent</text>
</g>
<!-- CardComponent&#45;&gt;AppModule -->
<g id="edge6" class="edge">
<title>CardComponent&#45;&gt;AppModule</title>
<path fill="none" stroke="#000000" d="M1685,-122.027C1685,-138.3976 1685,-160 1685,-160 1685,-160 1378.7678,-160 1378.7678,-160"/>
<polygon fill="#000000" stroke="#000000" points="1378.7678,-156.5001 1368.7678,-160 1378.7678,-163.5001 1378.7678,-156.5001"/>
</g>
<!-- MemoryComponent -->
<g id="node7" class="node">
<title>MemoryComponent</title>
<polygon fill="#ffffb3" stroke="#000000" points="1612.5436,-122 1483.4564,-122 1483.4564,-86 1612.5436,-86 1612.5436,-122"/>
<text text-anchor="middle" x="1548" y="-99.8" font-family="Times,serif" font-size="14.00" fill="#000000">MemoryComponent</text>
</g>
<!-- MemoryComponent&#45;&gt;AppModule -->
<g id="edge7" class="edge">
<title>MemoryComponent&#45;&gt;AppModule</title>
<path fill="none" stroke="#000000" d="M1548,-122.1871C1548,-137.1824 1548,-156 1548,-156 1548,-156 1378.8282,-156 1378.8282,-156"/>
<polygon fill="#000000" stroke="#000000" points="1378.8283,-152.5001 1368.8282,-156 1378.8282,-159.5001 1378.8283,-152.5001"/>
</g>
<!-- QuizPlayComponent -->
<g id="node8" class="node">
<title>QuizPlayComponent</title>
<polygon fill="#ffffb3" stroke="#000000" points="1465.9327,-122 1332.0673,-122 1332.0673,-86 1465.9327,-86 1465.9327,-122"/>
<text text-anchor="middle" x="1399" y="-99.8" font-family="Times,serif" font-size="14.00" fill="#000000">QuizPlayComponent</text>
</g>
<!-- QuizPlayComponent&#45;&gt;AppModule -->
<g id="edge8" class="edge">
<title>QuizPlayComponent&#45;&gt;AppModule</title>
<path fill="none" stroke="#000000" d="M1350.5561,-122.1061C1350.5561,-122.1061 1350.5561,-140.991 1350.5561,-140.991"/>
<polygon fill="#000000" stroke="#000000" points="1347.0562,-140.9909 1350.5561,-150.991 1354.0562,-140.991 1347.0562,-140.9909"/>
</g>
<!-- AppComponent  -->
<g id="node17" class="node">
<title>AppComponent </title>
<polygon fill="#80b1d3" stroke="#000000" points="1381.439,-252 1272.561,-252 1272.561,-216 1381.439,-216 1381.439,-252"/>
<text text-anchor="middle" x="1327" y="-229.8" font-family="Times,serif" font-size="14.00" fill="#000000">AppComponent </text>
</g>
<!-- AppModule&#45;&gt;AppComponent  -->
<g id="edge16" class="edge">
<title>AppModule&#45;&gt;AppComponent </title>
<path fill="none" stroke="#000000" stroke-dasharray="1,5" d="M1327,-187.1061C1327,-187.1061 1327,-205.991 1327,-205.991"/>
<polygon fill="#000000" stroke="#000000" points="1323.5001,-205.9909 1327,-215.991 1330.5001,-205.991 1323.5001,-205.9909"/>
</g>
<!-- BrowserModule -->
<g id="node10" class="node">
<title>BrowserModule</title>
<polygon fill="#8dd3c7" stroke="#000000" points="1308.4734,-122 1305.4734,-126 1284.4734,-126 1281.4734,-122 1201.5266,-122 1201.5266,-86 1308.4734,-86 1308.4734,-122"/>
<text text-anchor="middle" x="1255" y="-99.8" font-family="Times,serif" font-size="14.00" fill="#000000">BrowserModule</text>
</g>
<!-- BrowserModule&#45;&gt;AppModule -->
<g id="edge9" class="edge">
<title>BrowserModule&#45;&gt;AppModule</title>
<path fill="none" stroke="#000000" d="M1296.8293,-122.1061C1296.8293,-122.1061 1296.8293,-140.991 1296.8293,-140.991"/>
<polygon fill="#000000" stroke="#000000" points="1293.3293,-140.9909 1296.8293,-150.991 1300.3293,-140.991 1293.3293,-140.9909"/>
</g>
<!-- AppRoutingModule -->
<g id="node11" class="node">
<title>AppRoutingModule</title>
<polygon fill="#8dd3c7" stroke="#000000" points="1183.2744,-122 1180.2744,-126 1159.2744,-126 1156.2744,-122 1054.7256,-122 1054.7256,-86 1183.2744,-86 1183.2744,-122"/>
<text text-anchor="middle" x="1119" y="-99.8" font-family="Times,serif" font-size="14.00" fill="#000000">AppRoutingModule</text>
</g>
<!-- AppRoutingModule&#45;&gt;AppModule -->
<g id="edge10" class="edge">
<title>AppRoutingModule&#45;&gt;AppModule</title>
<path fill="none" stroke="#000000" d="M1119,-122.1871C1119,-137.1824 1119,-156 1119,-156 1119,-156 1274.9081,-156 1274.9081,-156"/>
<polygon fill="#000000" stroke="#000000" points="1274.9081,-159.5001 1284.9081,-156 1274.9081,-152.5001 1274.9081,-159.5001"/>
</g>
<!-- AngularFireModule.initializeApp(args) -->
<g id="node12" class="node">
<title>AngularFireModule.initializeApp(args)</title>
<polygon fill="#8dd3c7" stroke="#000000" points="1036.7057,-122 1033.7057,-126 1012.7057,-126 1009.7057,-122 799.2943,-122 799.2943,-86 1036.7057,-86 1036.7057,-122"/>
<text text-anchor="middle" x="918" y="-99.8" font-family="Times,serif" font-size="14.00" fill="#000000">AngularFireModule.initializeApp(args)</text>
</g>
<!-- AngularFireModule.initializeApp(args)&#45;&gt;AppModule -->
<g id="edge11" class="edge">
<title>AngularFireModule.initializeApp(args)&#45;&gt;AppModule</title>
<path fill="none" stroke="#000000" d="M918,-122.027C918,-138.3976 918,-160 918,-160 918,-160 1275.1519,-160 1275.1519,-160"/>
<polygon fill="#000000" stroke="#000000" points="1275.1519,-163.5001 1285.1519,-160 1275.1519,-156.5001 1275.1519,-163.5001"/>
</g>
<!-- AngularFirestoreModule -->
<g id="node13" class="node">
<title>AngularFirestoreModule</title>
<polygon fill="#8dd3c7" stroke="#000000" points="781.6811,-122 778.6811,-126 757.6811,-126 754.6811,-122 626.3189,-122 626.3189,-86 781.6811,-86 781.6811,-122"/>
<text text-anchor="middle" x="704" y="-99.8" font-family="Times,serif" font-size="14.00" fill="#000000">AngularFirestoreModule</text>
</g>
<!-- AngularFirestoreModule&#45;&gt;AppModule -->
<g id="edge12" class="edge">
<title>AngularFirestoreModule&#45;&gt;AppModule</title>
<path fill="none" stroke="#000000" d="M704,-122.302C704,-140.2699 704,-165 704,-165 704,-165 1275.1558,-165 1275.1558,-165"/>
<polygon fill="#000000" stroke="#000000" points="1275.1559,-168.5001 1285.1558,-165 1275.1558,-161.5001 1275.1559,-168.5001"/>
</g>
<!-- BrowserAnimationsModule -->
<g id="node14" class="node">
<title>BrowserAnimationsModule</title>
<polygon fill="#8dd3c7" stroke="#000000" points="608.3019,-122 605.3019,-126 584.3019,-126 581.3019,-122 435.6981,-122 435.6981,-86 608.3019,-86 608.3019,-122"/>
<text text-anchor="middle" x="522" y="-99.8" font-family="Times,serif" font-size="14.00" fill="#000000">BrowserAnimationsModule</text>
</g>
<!-- BrowserAnimationsModule&#45;&gt;AppModule -->
<g id="edge13" class="edge">
<title>BrowserAnimationsModule&#45;&gt;AppModule</title>
<path fill="none" stroke="#000000" d="M522,-122.1061C522,-141.3391 522,-169 522,-169 522,-169 1275.1344,-169 1275.1344,-169"/>
<polygon fill="#000000" stroke="#000000" points="1275.1344,-172.5001 1285.1344,-169 1275.1344,-165.5001 1275.1344,-172.5001"/>
</g>
<!-- MatCardModule -->
<g id="node15" class="node">
<title>MatCardModule</title>
<polygon fill="#8dd3c7" stroke="#000000" points="417.8118,-122 414.8118,-126 393.8118,-126 390.8118,-122 308.1882,-122 308.1882,-86 417.8118,-86 417.8118,-122"/>
<text text-anchor="middle" x="363" y="-99.8" font-family="Times,serif" font-size="14.00" fill="#000000">MatCardModule</text>
</g>
<!-- MatCardModule&#45;&gt;AppModule -->
<g id="edge14" class="edge">
<title>MatCardModule&#45;&gt;AppModule</title>
<path fill="none" stroke="#000000" d="M363,-122.0267C363,-142.7672 363,-174 363,-174 363,-174 1275.2687,-174 1275.2687,-174"/>
<polygon fill="#000000" stroke="#000000" points="1275.2687,-177.5001 1285.2687,-174 1275.2687,-170.5001 1275.2687,-177.5001"/>
</g>
<!-- DragDropModule -->
<g id="node16" class="node">
<title>DragDropModule</title>
<polygon fill="#8dd3c7" stroke="#000000" points="290.2992,-122 287.2992,-126 266.2992,-126 263.2992,-122 173.7008,-122 173.7008,-86 290.2992,-86 290.2992,-122"/>
<text text-anchor="middle" x="232" y="-99.8" font-family="Times,serif" font-size="14.00" fill="#000000">DragDropModule</text>
</g>
<!-- DragDropModule&#45;&gt;AppModule -->
<g id="edge15" class="edge">
<title>DragDropModule&#45;&gt;AppModule</title>
<path fill="none" stroke="#000000" d="M232,-122.2921C232,-144.2057 232,-178 232,-178 232,-178 1275.0793,-178 1275.0793,-178"/>
<polygon fill="#000000" stroke="#000000" points="1275.0794,-181.5001 1285.0793,-178 1275.0793,-174.5001 1275.0794,-181.5001"/>
</g>
<!-- CardsService -->
<g id="node18" class="node">
<title>CardsService</title>
<ellipse fill="#fdb462" stroke="#000000" cx="87" cy="-104" rx="62.5354" ry="18"/>
<text text-anchor="middle" x="87" y="-99.8" font-family="Times,serif" font-size="14.00" fill="#000000">CardsService</text>
</g>
<!-- CardsService&#45;&gt;AppModule -->
<g id="edge17" class="edge">
<title>CardsService&#45;&gt;AppModule</title>
<path fill="none" stroke="#000000" d="M87,-122.3228C87,-145.6602 87,-183 87,-183 87,-183 1275.0325,-183 1275.0325,-183"/>
<polygon fill="#000000" stroke="#000000" points="1275.0325,-186.5001 1285.0325,-183 1275.0324,-179.5001 1275.0325,-186.5001"/>
</g>
</g>
</svg>
