<?xml version="1.0" encoding="UTF-8" standalone="no"?>
<!DOCTYPE svg PUBLIC "-//W3C//DTD SVG 1.1//EN"
 "http://www.w3.org/Graphics/SVG/1.1/DTD/svg11.dtd">
<!-- Generated by graphviz version 2.40.1 (20161225.0304)
 -->
<!-- Title: dependencies Pages: 1 -->
<svg width="2795pt" height="290pt"
 viewBox="0.00 0.00 2795.00 290.00" xmlns="http://www.w3.org/2000/svg" xmlns:xlink="http://www.w3.org/1999/xlink">
<g id="graph0" class="graph" transform="scale(1 1) rotate(0) translate(4 286)">
<title>dependencies</title>
<polygon fill="#ffffff" stroke="transparent" points="-4,4 -4,-286 2791,-286 2791,4 -4,4"/>
<text text-anchor="start" x="1372.5091" y="-42.4" font-family="sans-serif" font-weight="bold" font-size="14.00" fill="#000000">Legend</text>
<polygon fill="#ffffb3" stroke="transparent" points="1159.5,-10 1159.5,-30 1179.5,-30 1179.5,-10 1159.5,-10"/>
<text text-anchor="start" x="1183.129" y="-15.4" font-family="sans-serif" font-size="14.00" fill="#000000"> &#160;Declarations</text>
<polygon fill="#8dd3c7" stroke="transparent" points="1272.5,-10 1272.5,-30 1292.5,-30 1292.5,-10 1272.5,-10"/>
<text text-anchor="start" x="1296.2251" y="-15.4" font-family="sans-serif" font-size="14.00" fill="#000000"> &#160;Module</text>
<polygon fill="#80b1d3" stroke="transparent" points="1358.5,-10 1358.5,-30 1378.5,-30 1378.5,-10 1358.5,-10"/>
<text text-anchor="start" x="1382.2812" y="-15.4" font-family="sans-serif" font-size="14.00" fill="#000000"> &#160;Bootstrap</text>
<polygon fill="#fdb462" stroke="transparent" points="1455.5,-10 1455.5,-30 1475.5,-30 1475.5,-10 1455.5,-10"/>
<text text-anchor="start" x="1479.1732" y="-15.4" font-family="sans-serif" font-size="14.00" fill="#000000"> &#160;Providers</text>
<polygon fill="#fb8072" stroke="transparent" points="1551.5,-10 1551.5,-30 1571.5,-30 1571.5,-10 1551.5,-10"/>
<text text-anchor="start" x="1575.2258" y="-15.4" font-family="sans-serif" font-size="14.00" fill="#000000"> &#160;Exports</text>
<g id="clust1" class="cluster">
<title>cluster_AppModule</title>
<polygon fill="none" stroke="#000000" stroke-dasharray="1,5" points="8,-70 8,-274 2435,-274 2435,-70 8,-70"/>
</g>
<g id="clust2" class="cluster">
<title>cluster_AppModule_declarations</title>
<polygon fill="none" stroke="#000000" points="166,-78 166,-130 1268,-130 1268,-78 166,-78"/>
</g>
<g id="clust11" class="cluster">
<title>cluster_AppModule_imports</title>
<polygon fill="none" stroke="#000000" points="1276,-78 1276,-130 2427,-130 2427,-78 1276,-78"/>
</g>
<g id="clust13" class="cluster">
<title>cluster_AppModule_bootstrap</title>
<polygon fill="none" stroke="#000000" points="1080,-214 1080,-266 1204,-266 1204,-214 1080,-214"/>
</g>
<g id="clust14" class="cluster">
<title>cluster_AppModule_providers</title>
<polygon fill="none" stroke="#000000" points="16,-78 16,-130 158,-130 158,-78 16,-78"/>
</g>
<g id="clust15" class="cluster">
<title>cluster_AppRoutingModule</title>
<polygon fill="none" stroke="#000000" stroke-dasharray="1,5" points="2443,-138 2443,-206 2779,-206 2779,-138 2443,-138"/>
</g>
<g id="clust17" class="cluster">
<title>cluster_AppRoutingModule_imports</title>
<polygon fill="none" stroke="#000000" points="2577,-146 2577,-198 2771,-198 2771,-146 2577,-146"/>
</g>
<g id="clust18" class="cluster">
<title>cluster_AppRoutingModule_exports</title>
<polygon fill="none" stroke="#000000" points="2451,-146 2451,-198 2569,-198 2569,-146 2451,-146"/>
</g>
<!-- AppComponent -->
<g id="node1" class="node">
<title>AppComponent</title>
<polygon fill="#ffffb3" stroke="#000000" points="1259.9399,-122 1154.0601,-122 1154.0601,-86 1259.9399,-86 1259.9399,-122"/>
<text text-anchor="middle" x="1207" y="-99.8" font-family="Times,serif" font-size="14.00" fill="#000000">AppComponent</text>
</g>
<!-- AppModule -->
<g id="node9" class="node">
<title>AppModule</title>
<polygon fill="#8dd3c7" stroke="#000000" points="1183.6571,-190 1180.6571,-194 1159.6571,-194 1156.6571,-190 1100.3429,-190 1100.3429,-154 1183.6571,-154 1183.6571,-190"/>
<text text-anchor="middle" x="1142" y="-167.8" font-family="Times,serif" font-size="14.00" fill="#000000">AppModule</text>
</g>
<!-- AppComponent&#45;&gt;AppModule -->
<g id="edge1" class="edge">
<title>AppComponent&#45;&gt;AppModule</title>
<path fill="none" stroke="#000000" d="M1169.0543,-122.2228C1169.0543,-122.2228 1169.0543,-143.7269 1169.0543,-143.7269"/>
<polygon fill="#000000" stroke="#000000" points="1165.5544,-143.7269 1169.0543,-153.7269 1172.5544,-143.727 1165.5544,-143.7269"/>
</g>
<!-- ScoresComponent -->
<g id="node2" class="node">
<title>ScoresComponent</title>
<polygon fill="#ffffb3" stroke="#000000" points="1136.1499,-122 1017.8501,-122 1017.8501,-86 1136.1499,-86 1136.1499,-122"/>
<text text-anchor="middle" x="1077" y="-99.8" font-family="Times,serif" font-size="14.00" fill="#000000">ScoresComponent</text>
</g>
<!-- ScoresComponent&#45;&gt;AppModule -->
<g id="edge2" class="edge">
<title>ScoresComponent&#45;&gt;AppModule</title>
<path fill="none" stroke="#000000" d="M1118.2483,-122.2228C1118.2483,-122.2228 1118.2483,-143.7269 1118.2483,-143.7269"/>
<polygon fill="#000000" stroke="#000000" points="1114.7483,-143.7269 1118.2483,-153.7269 1121.7483,-143.727 1114.7483,-143.7269"/>
</g>
<!-- QuizUserComponent -->
<g id="node3" class="node">
<title>QuizUserComponent</title>
<polygon fill="#ffffb3" stroke="#000000" points="999.4706,-122 864.5294,-122 864.5294,-86 999.4706,-86 999.4706,-122"/>
<text text-anchor="middle" x="932" y="-99.8" font-family="Times,serif" font-size="14.00" fill="#000000">QuizUserComponent</text>
</g>
<!-- QuizUserComponent&#45;&gt;AppModule -->
<g id="edge3" class="edge">
<title>QuizUserComponent&#45;&gt;AppModule</title>
<path fill="none" stroke="#000000" d="M932,-122.0091C932,-138.0494 932,-159 932,-159 932,-159 1090.2597,-159 1090.2597,-159"/>
<polygon fill="#000000" stroke="#000000" points="1090.2597,-162.5001 1100.2597,-159 1090.2596,-155.5001 1090.2597,-162.5001"/>
</g>
<!-- HomeComponent -->
<g id="node4" class="node">
<title>HomeComponent</title>
<polygon fill="#ffffb3" stroke="#000000" points="846.5451,-122 731.4549,-122 731.4549,-86 846.5451,-86 846.5451,-122"/>
<text text-anchor="middle" x="789" y="-99.8" font-family="Times,serif" font-size="14.00" fill="#000000">HomeComponent</text>
</g>
<!-- HomeComponent&#45;&gt;AppModule -->
<g id="edge4" class="edge">
<title>HomeComponent&#45;&gt;AppModule</title>
<path fill="none" stroke="#000000" d="M789,-122.0225C789,-139.3734 789,-163 789,-163 789,-163 1090.1201,-163 1090.1201,-163"/>
<polygon fill="#000000" stroke="#000000" points="1090.1201,-166.5001 1100.1201,-163 1090.12,-159.5001 1090.1201,-166.5001"/>
</g>
<!-- CardsComponent -->
<g id="node5" class="node">
<title>CardsComponent</title>
<polygon fill="#ffffb3" stroke="#000000" points="712.9888,-122 599.0112,-122 599.0112,-86 712.9888,-86 712.9888,-122"/>
<text text-anchor="middle" x="656" y="-99.8" font-family="Times,serif" font-size="14.00" fill="#000000">CardsComponent</text>
</g>
<!-- CardsComponent&#45;&gt;AppModule -->
<g id="edge5" class="edge">
<title>CardsComponent&#45;&gt;AppModule</title>
<path fill="none" stroke="#000000" d="M656,-122.1686C656,-141.0898 656,-168 656,-168 656,-168 1090.1433,-168 1090.1433,-168"/>
<polygon fill="#000000" stroke="#000000" points="1090.1433,-171.5001 1100.1433,-168 1090.1432,-164.5001 1090.1433,-171.5001"/>
</g>
<!-- CardComponent -->
<g id="node6" class="node">
<title>CardComponent</title>
<polygon fill="#ffffb3" stroke="#000000" points="581.0452,-122 472.9548,-122 472.9548,-86 581.0452,-86 581.0452,-122"/>
<text text-anchor="middle" x="527" y="-99.8" font-family="Times,serif" font-size="14.00" fill="#000000">CardComponent</text>
</g>
<!-- CardComponent&#45;&gt;AppModule -->
<g id="edge6" class="edge">
<title>CardComponent&#45;&gt;AppModule</title>
<path fill="none" stroke="#000000" d="M527,-122.2228C527,-142.3652 527,-172 527,-172 527,-172 1090.2121,-172 1090.2121,-172"/>
<polygon fill="#000000" stroke="#000000" points="1090.2121,-175.5001 1100.2121,-172 1090.212,-168.5001 1090.2121,-175.5001"/>
</g>
<!-- MemoryComponent -->
<g id="node7" class="node">
<title>MemoryComponent</title>
<polygon fill="#ffffb3" stroke="#000000" points="454.5436,-122 325.4564,-122 325.4564,-86 454.5436,-86 454.5436,-122"/>
<text text-anchor="middle" x="390" y="-99.8" font-family="Times,serif" font-size="14.00" fill="#000000">MemoryComponent</text>
</g>
<!-- MemoryComponent&#45;&gt;AppModule -->
<g id="edge7" class="edge">
<title>MemoryComponent&#45;&gt;AppModule</title>
<path fill="none" stroke="#000000" d="M390,-122.0449C390,-143.6623 390,-177 390,-177 390,-177 1090.2283,-177 1090.2283,-177"/>
<polygon fill="#000000" stroke="#000000" points="1090.2284,-180.5001 1100.2283,-177 1090.2283,-173.5001 1090.2284,-180.5001"/>
</g>
<!-- QuizPlayComponent -->
<g id="node8" class="node">
<title>QuizPlayComponent</title>
<polygon fill="#ffffb3" stroke="#000000" points="307.9327,-122 174.0673,-122 174.0673,-86 307.9327,-86 307.9327,-122"/>
<text text-anchor="middle" x="241" y="-99.8" font-family="Times,serif" font-size="14.00" fill="#000000">QuizPlayComponent</text>
</g>
<!-- QuizPlayComponent&#45;&gt;AppModule -->
<g id="edge8" class="edge">
<title>QuizPlayComponent&#45;&gt;AppModule</title>
<path fill="none" stroke="#000000" d="M241,-122.2479C241,-145.0179 241,-181 241,-181 241,-181 1090.0511,-181 1090.0511,-181"/>
<polygon fill="#000000" stroke="#000000" points="1090.0512,-184.5001 1100.0511,-181 1090.0511,-177.5001 1090.0512,-184.5001"/>
</g>
<!-- AppComponent  -->
<g id="node17" class="node">
<title>AppComponent </title>
<polygon fill="#80b1d3" stroke="#000000" points="1196.439,-258 1087.561,-258 1087.561,-222 1196.439,-222 1196.439,-258"/>
<text text-anchor="middle" x="1142" y="-235.8" font-family="Times,serif" font-size="14.00" fill="#000000">AppComponent </text>
</g>
<!-- AppModule&#45;&gt;AppComponent  -->
<g id="edge16" class="edge">
<title>AppModule&#45;&gt;AppComponent </title>
<path fill="none" stroke="#000000" stroke-dasharray="1,5" d="M1142,-190.2228C1142,-190.2228 1142,-211.7269 1142,-211.7269"/>
<polygon fill="#000000" stroke="#000000" points="1138.5001,-211.7269 1142,-221.7269 1145.5001,-211.727 1138.5001,-211.7269"/>
</g>
<!-- BrowserModule -->
<g id="node10" class="node">
<title>BrowserModule</title>
<polygon fill="#8dd3c7" stroke="#000000" points="2272.4734,-122 2269.4734,-126 2248.4734,-126 2245.4734,-122 2165.5266,-122 2165.5266,-86 2272.4734,-86 2272.4734,-122"/>
<text text-anchor="middle" x="2219" y="-99.8" font-family="Times,serif" font-size="14.00" fill="#000000">BrowserModule</text>
</g>
<!-- BrowserModule&#45;&gt;AppModule -->
<g id="edge9" class="edge">
<title>BrowserModule&#45;&gt;AppModule</title>
<path fill="none" stroke="#000000" d="M2219,-122.2479C2219,-145.0179 2219,-181 2219,-181 2219,-181 1193.8891,-181 1193.8891,-181"/>
<polygon fill="#000000" stroke="#000000" points="1193.8892,-177.5001 1183.8891,-181 1193.8891,-184.5001 1193.8892,-177.5001"/>
</g>
<!-- AppRoutingModule -->
<g id="node11" class="node">
<title>AppRoutingModule</title>
<polygon fill="#8dd3c7" stroke="#000000" points="2419.2744,-122 2416.2744,-126 2395.2744,-126 2392.2744,-122 2290.7256,-122 2290.7256,-86 2419.2744,-86 2419.2744,-122"/>
<text text-anchor="middle" x="2355" y="-99.8" font-family="Times,serif" font-size="14.00" fill="#000000">AppRoutingModule</text>
</g>
<!-- AppRoutingModule&#45;&gt;AppModule -->
<g id="edge10" class="edge">
<title>AppRoutingModule&#45;&gt;AppModule</title>
<path fill="none" stroke="#000000" d="M2355,-122.1985C2355,-146.3563 2355,-186 2355,-186 2355,-186 1193.7542,-186 1193.7542,-186"/>
<polygon fill="#000000" stroke="#000000" points="1193.7542,-182.5001 1183.7542,-186 1193.7542,-189.5001 1193.7542,-182.5001"/>
</g>
<!-- RouterModule  -->
<g id="node20" class="node">
<title>RouterModule </title>
<polygon fill="#fb8072" stroke="#000000" points="2560.6523,-190 2459.3477,-190 2459.3477,-154 2560.6523,-154 2560.6523,-190"/>
<text text-anchor="middle" x="2510" y="-167.8" font-family="Times,serif" font-size="14.00" fill="#000000">RouterModule </text>
</g>
<!-- AppRoutingModule&#45;&gt;RouterModule  -->
<g id="edge19" class="edge">
<title>AppRoutingModule&#45;&gt;RouterModule </title>
<path fill="none" stroke="#000000" stroke-dasharray="5,2" d="M2419.3874,-110C2461.9734,-110 2510,-110 2510,-110 2510,-110 2510,-143.7333 2510,-143.7333"/>
<polygon fill="#000000" stroke="#000000" points="2506.5001,-143.7333 2510,-153.7333 2513.5001,-143.7333 2506.5001,-143.7333"/>
</g>
<!-- AngularFireModule.initializeApp(args) -->
<g id="node12" class="node">
<title>AngularFireModule.initializeApp(args)</title>
<polygon fill="#8dd3c7" stroke="#000000" points="2012.7057,-122 2009.7057,-126 1988.7057,-126 1985.7057,-122 1775.2943,-122 1775.2943,-86 2012.7057,-86 2012.7057,-122"/>
<text text-anchor="middle" x="1894" y="-99.8" font-family="Times,serif" font-size="14.00" fill="#000000">AngularFireModule.initializeApp(args)</text>
</g>
<!-- AngularFireModule.initializeApp(args)&#45;&gt;AppModule -->
<g id="edge11" class="edge">
<title>AngularFireModule.initializeApp(args)&#45;&gt;AppModule</title>
<path fill="none" stroke="#000000" d="M1894,-122.2228C1894,-142.3652 1894,-172 1894,-172 1894,-172 1193.7717,-172 1193.7717,-172"/>
<polygon fill="#000000" stroke="#000000" points="1193.7717,-168.5001 1183.7717,-172 1193.7716,-175.5001 1193.7717,-168.5001"/>
</g>
<!-- AngularFirestoreModule -->
<g id="node13" class="node">
<title>AngularFirestoreModule</title>
<polygon fill="#8dd3c7" stroke="#000000" points="1757.6811,-122 1754.6811,-126 1733.6811,-126 1730.6811,-122 1602.3189,-122 1602.3189,-86 1757.6811,-86 1757.6811,-122"/>
<text text-anchor="middle" x="1680" y="-99.8" font-family="Times,serif" font-size="14.00" fill="#000000">AngularFirestoreModule</text>
</g>
<!-- AngularFirestoreModule&#45;&gt;AppModule -->
<g id="edge12" class="edge">
<title>AngularFirestoreModule&#45;&gt;AppModule</title>
<path fill="none" stroke="#000000" d="M1680,-122.1686C1680,-141.0898 1680,-168 1680,-168 1680,-168 1193.7683,-168 1193.7683,-168"/>
<polygon fill="#000000" stroke="#000000" points="1193.7683,-164.5001 1183.7683,-168 1193.7682,-171.5001 1193.7683,-164.5001"/>
</g>
<!-- BrowserAnimationsModule -->
<g id="node14" class="node">
<title>BrowserAnimationsModule</title>
<polygon fill="#8dd3c7" stroke="#000000" points="1584.3019,-122 1581.3019,-126 1560.3019,-126 1557.3019,-122 1411.6981,-122 1411.6981,-86 1584.3019,-86 1584.3019,-122"/>
<text text-anchor="middle" x="1498" y="-99.8" font-family="Times,serif" font-size="14.00" fill="#000000">BrowserAnimationsModule</text>
</g>
<!-- BrowserAnimationsModule&#45;&gt;AppModule -->
<g id="edge13" class="edge">
<title>BrowserAnimationsModule&#45;&gt;AppModule</title>
<path fill="none" stroke="#000000" d="M1498,-122.0225C1498,-139.3734 1498,-163 1498,-163 1498,-163 1193.8846,-163 1193.8846,-163"/>
<polygon fill="#000000" stroke="#000000" points="1193.8846,-159.5001 1183.8846,-163 1193.8845,-166.5001 1193.8846,-159.5001"/>
</g>
<!-- MatCardModule -->
<g id="node15" class="node">
<title>MatCardModule</title>
<polygon fill="#8dd3c7" stroke="#000000" points="1393.8118,-122 1390.8118,-126 1369.8118,-126 1366.8118,-122 1284.1882,-122 1284.1882,-86 1393.8118,-86 1393.8118,-122"/>
<text text-anchor="middle" x="1339" y="-99.8" font-family="Times,serif" font-size="14.00" fill="#000000">MatCardModule</text>
</g>
<!-- MatCardModule&#45;&gt;AppModule -->
<g id="edge14" class="edge">
<title>MatCardModule&#45;&gt;AppModule</title>
<path fill="none" stroke="#000000" d="M1339,-122.0091C1339,-138.0494 1339,-159 1339,-159 1339,-159 1193.7786,-159 1193.7786,-159"/>
<polygon fill="#000000" stroke="#000000" points="1193.7787,-155.5001 1183.7786,-159 1193.7786,-162.5001 1193.7787,-155.5001"/>
</g>
<!-- DragDropModule -->
<g id="node16" class="node">
<title>DragDropModule</title>
<polygon fill="#8dd3c7" stroke="#000000" points="2147.2992,-122 2144.2992,-126 2123.2992,-126 2120.2992,-122 2030.7008,-122 2030.7008,-86 2147.2992,-86 2147.2992,-122"/>
<text text-anchor="middle" x="2089" y="-99.8" font-family="Times,serif" font-size="14.00" fill="#000000">DragDropModule</text>
</g>
<!-- DragDropModule&#45;&gt;AppModule -->
<g id="edge15" class="edge">
<title>DragDropModule&#45;&gt;AppModule</title>
<path fill="none" stroke="#000000" d="M2089,-122.0449C2089,-143.6623 2089,-177 2089,-177 2089,-177 1193.9133,-177 1193.9133,-177"/>
<polygon fill="#000000" stroke="#000000" points="1193.9134,-173.5001 1183.9133,-177 1193.9133,-180.5001 1193.9134,-173.5001"/>
</g>
<!-- CardsService -->
<g id="node18" class="node">
<title>CardsService</title>
<ellipse fill="#fdb462" stroke="#000000" cx="87" cy="-104" rx="62.5354" ry="18"/>
<text text-anchor="middle" x="87" y="-99.8" font-family="Times,serif" font-size="14.00" fill="#000000">CardsService</text>
</g>
<!-- CardsService&#45;&gt;AppModule -->
<g id="edge17" class="edge">
<title>CardsService&#45;&gt;AppModule</title>
<path fill="none" stroke="#000000" d="M87,-122.1985C87,-146.3563 87,-186 87,-186 87,-186 1090.3178,-186 1090.3178,-186"/>
<polygon fill="#000000" stroke="#000000" points="1090.3178,-189.5001 1100.3178,-186 1090.3178,-182.5001 1090.3178,-189.5001"/>
</g>
<!-- RouterModule.forRoot(args) -->
<g id="node19" class="node">
<title>RouterModule.forRoot(args)</title>
<polygon fill="#8dd3c7" stroke="#000000" points="2762.8419,-190 2759.8419,-194 2738.8419,-194 2735.8419,-190 2585.1581,-190 2585.1581,-154 2762.8419,-154 2762.8419,-190"/>
<text text-anchor="middle" x="2674" y="-167.8" font-family="Times,serif" font-size="14.00" fill="#000000">RouterModule.forRoot(args)</text>
</g>
<!-- RouterModule.forRoot(args)&#45;&gt;AppRoutingModule -->
<g id="edge18" class="edge">
<title>RouterModule.forRoot(args)&#45;&gt;AppRoutingModule</title>
<path fill="none" stroke="#000000" d="M2674,-153.7079C2674,-131.7943 2674,-98 2674,-98 2674,-98 2429.5544,-98 2429.5544,-98"/>
<polygon fill="#000000" stroke="#000000" points="2429.5544,-94.5001 2419.5544,-98 2429.5544,-101.5001 2429.5544,-94.5001"/>
</g>
</g>
</svg>
